<svg width="45" height="36" fill="none" xmlns="http://www.w3.org/2000/svg"><g clip-path="url(#clip0_1_1468)"><path d="M10.9 18.972c4.274 0 7.739-3.527 7.739-7.877s-3.465-7.877-7.74-7.877c-4.273 0-7.738 3.526-7.738 7.877 0 4.35 3.465 7.877 7.739 7.877z" fill="#e83832"/><path opacity=".25" d="M10.9 22.19c6.02 0 10.9-4.967 10.9-11.095C21.8 4.967 16.92 0 10.9 0 4.88 0 0 4.967 0 11.095 0 17.223 4.88 22.19 10.9 22.19z" fill="#e83832"/><path d="M42.489 16.751l-6.603-7.383a3.315 3.315 0 00-4.75.009c-.42.427-.7.938-.848 1.475a3.325 3.325 0 00-4.42.31c-.42.427-.7.938-.849 1.474a3.325 3.325 0 00-4.42.31 3.336 3.336 0 00-.84 1.442l-3.129-3.16a3.315 3.315 0 00-4.75.01 3.457 3.457 0 000 4.826L23.834 28.24l-7.089 1.131c-1.918.277-3.359 1.978-3.359 3.947 0 1.475 1.186 2.682 2.635 2.682h16.564c2.577 0 5.005-1.023 6.833-2.883l2.766-2.816a9.857 9.857 0 002.824-6.947 9.997 9.997 0 00-2.52-6.603zm-1.564 12.293l-2.767 2.816a7.783 7.783 0 01-5.59 2.355H16.021a.89.89 0 01-.881-.897c0-1.09.798-2.02 1.869-2.179l8.809-1.407a.883.883 0 00.7-.604.912.912 0 00-.215-.905l-13.18-13.416a1.652 1.652 0 01.008-2.313 1.569 1.569 0 012.256 0l8.784 8.941a.864.864 0 001.243 0 .895.895 0 00.255-.636.895.895 0 00-.255-.637l-3.59-3.654a1.652 1.652 0 01.009-2.313 1.58 1.58 0 012.264 0l3.59 3.654a.864.864 0 001.243 0 .895.895 0 00.255-.637.895.895 0 00-.255-.637l-1.836-1.869a1.652 1.652 0 01.008-2.313 1.58 1.58 0 012.264 0l1.844 1.878a.866.866 0 001.227-.017.901.901 0 000-1.265l-.074-.076a1.64 1.64 0 01.008-2.305c.626-.636 1.638-.628 2.231-.033l6.578 7.358a8.092 8.092 0 012.05 5.405c.008 2.17-.807 4.19-2.305 5.706z" fill="#282828"/></g><defs><clipPath id="clip0_1_1468"><path fill="#fff" d="M0 0h45v36H0z"/></clipPath></defs></svg>