<?xml version="1.0" encoding="UTF-8" standalone="no"?>
<svg width="50px" height="50px" viewBox="0 0 40 40" version="1.1" xmlns="http://www.w3.org/2000/svg" xmlns:xlink="http://www.w3.org/1999/xlink">
    <!-- Generator: Sketch 39.1 (31720) - http://www.bohemiancoding.com/sketch -->
    <title>Group 33</title>
    <desc>Created with Sketch.</desc>
    <defs>
        <path d="M20,40 C31.045695,40 40,31.045695 40,20 C40,8.954305 31.045695,0 20,0 C8.954305,0 0,8.954305 0,20 C0,31.045695 8.954305,40 20,40 Z" id="path-1"></path>
        <mask id="mask-2" maskContentUnits="userSpaceOnUse" maskUnits="objectBoundingBox" x="0" y="0" width="40" height="40" fill="white">
            <use xlink:href="#path-1"></use>
        </mask>
    </defs>
    <g id="Page-1" stroke="none" stroke-width="1" fill="none" fill-rule="evenodd">
        <g id="Landing---Desktop-HD" transform="translate(-700.000000, -513.000000)">
            <g id="Header">
                <g id="Group-13" transform="translate(135.000000, 348.000000)">
                    <g id="Group-34">
                        <g id="Group-33" transform="translate(565.000000, 165.000000)">
                            <use id="Oval-13" stroke-opacity="0.15" stroke="#FFFFFF" mask="url(#mask-2)" stroke-width="4" xlink:href="#path-1"></use>
                            <g id="Group-9" transform="translate(8.000000, 6.000000)">
                                <g id="Group">
                                    <polygon id="Shape" fill="#FFFFFF" points="7.41 8.4864 12 12.8832 16.59 8.4864 18 9.84 12 15.6 6 9.84"></polygon>
                                    <polygon id="Shape" points="0 0.24 24 0.24 24 23.28 0 23.28"></polygon>
                                </g>
                                <g id="Group" transform="translate(0.000000, 6.000000)">
                                    <polygon id="Shape" fill="#FFFFFF" points="7.41 8.4864 12 12.8832 16.59 8.4864 18 9.84 12 15.6 6 9.84"></polygon>
                                    <polygon id="Shape" points="0 0.24 24 0.24 24 23.28 0 23.28"></polygon>
                                </g>
                            </g>
                        </g>
                    </g>
                </g>
            </g>
        </g>
    </g>
</svg>