<?xml version="1.0" standalone="no"?>
<!DOCTYPE svg PUBLIC "-//W3C//DTD SVG 20010904//EN"
 "http://www.w3.org/TR/2001/REC-SVG-20010904/DTD/svg10.dtd">
<svg version="1.0" xmlns="http://www.w3.org/2000/svg"
 width="826.000000pt" height="826.000000pt" viewBox="0 0 826.000000 826.000000"
 preserveAspectRatio="xMidYMid meet">
<metadata>
Created by potrace 1.14, written by Peter Selinger 2001-2017
</metadata>
<g transform="translate(0.000000,826.000000) scale(0.100000,-0.100000)"
fill="#000000" stroke="none">
<path d="M3908 8255 c-2 -1 -46 -6 -98 -9 -708 -51 -1434 -310 -2020 -719
-441 -308 -805 -679 -1097 -1117 -135 -203 -288 -487 -363 -675 -4 -11 -17
-40 -28 -65 -48 -111 -154 -440 -177 -549 -2 -9 -12 -54 -23 -101 -21 -90 -56
-295 -68 -395 -3 -33 -8 -73 -10 -90 -23 -190 -22 -573 1 -800 20 -194 27
-239 56 -385 5 -25 11 -58 14 -75 15 -96 124 -486 140 -503 3 -3 138 -31 221
-45 16 -3 65 -12 109 -21 44 -8 94 -18 110 -20 17 -3 104 -20 195 -36 91 -17
178 -34 194 -36 16 -3 72 -14 125 -24 l96 -19 1086 1086 1087 1085 965 -965
966 -966 440 182 440 182 -1 1038 c-1 945 -2 1037 -17 1038 -9 1 -206 2 -438
3 l-421 1 -4 -25 c-2 -14 -3 -283 -3 -597 l0 -573 -960 960 c-528 528 -964
960 -968 960 -5 0 -569 -560 -1254 -1246 -685 -685 -1247 -1243 -1249 -1241
-13 13 -51 294 -61 446 -10 163 -3 509 11 553 3 7 7 36 10 63 3 28 15 102 26
165 144 797 592 1518 1253 2014 358 268 816 479 1232 567 33 7 65 14 70 15 27
7 216 36 255 40 25 2 65 7 90 10 71 10 446 11 542 3 132 -12 181 -18 303 -38
78 -13 276 -58 315 -71 14 -5 66 -21 115 -36 342 -102 722 -305 1032 -551 266
-210 528 -497 697 -763 27 -41 57 -88 68 -103 24 -34 175 -330 207 -407 106
-249 203 -603 227 -828 3 -30 8 -65 10 -76 22 -117 22 -617 0 -732 -2 -11 -7
-46 -10 -76 -5 -47 -17 -117 -40 -233 -2 -11 -9 -40 -16 -65 -7 -25 -14 -54
-16 -64 -12 -62 -92 -311 -123 -381 -5 -11 -19 -45 -31 -75 -55 -138 -170
-352 -276 -516 -206 -317 -516 -638 -838 -868 -160 -114 -426 -264 -611 -343
-278 -119 -581 -197 -920 -238 -108 -13 -612 -14 -680 -2 -16 3 -68 11 -115
17 -388 51 -801 192 -1160 396 -208 118 -432 287 -635 476 l-69 65 -309 -309
-310 -309 39 -42 c22 -23 42 -44 45 -47 4 -3 40 -35 80 -71 481 -431 1020
-734 1619 -907 134 -39 334 -87 407 -97 21 -3 52 -9 68 -12 17 -3 39 -7 50 -9
11 -1 56 -7 100 -13 44 -6 116 -14 160 -17 44 -3 91 -7 105 -10 30 -5 455 -5
520 0 163 14 293 28 375 42 17 3 41 7 55 9 14 2 50 9 80 15 30 6 69 13 85 16
17 3 66 14 110 25 44 12 87 22 95 24 71 14 373 116 510 172 199 82 471 224
635 332 39 25 75 48 80 51 67 33 353 257 499 390 65 60 275 275 317 325 19 22
44 51 57 65 47 51 202 259 279 375 240 360 420 750 539 1173 34 122 97 418
109 517 3 28 8 64 10 80 12 95 15 129 22 220 13 186 6 601 -11 705 -3 14 -7
52 -11 84 -7 73 -13 117 -25 181 -5 28 -12 66 -15 85 -3 19 -8 42 -10 50 -2 8
-7 30 -10 48 -22 128 -119 451 -190 632 -171 436 -427 859 -730 1206 -95 110
-331 343 -440 436 -490 416 -1073 716 -1680 864 -173 42 -219 52 -270 59 -23
3 -52 8 -65 10 -38 8 -253 35 -318 41 -60 5 -559 13 -564 9z"/>
<path d="M3027 2812 c-16 -3 -17 -39 -17 -441 l0 -438 440 0 440 0 0 441 0
441 -423 0 c-233 0 -431 -1 -440 -3z"/>
</g>
</svg>
