<svg width="30" height="30" viewBox="0 0 30 30" fill="none" xmlns="http://www.w3.org/2000/svg">
<circle cx="15" cy="15" r="15" fill="#46A05D"/>
<path fill-rule="evenodd" clip-rule="evenodd" d="M21.4436 10.2507C21.6041 10.4114 21.6942 10.6293 21.6942 10.8565C21.6942 11.0837 21.6041 11.3016 21.4436 11.4623L13.1566 19.7493C12.9958 19.9098 12.7779 20 12.5508 20C12.3236 20 12.1057 19.9098 11.945 19.7493L8.23009 16.0345C8.07866 15.872 7.99622 15.657 8.00013 15.4349C8.00405 15.2128 8.09402 15.0009 8.2511 14.8439C8.40816 14.6868 8.62007 14.5968 8.84216 14.5929C9.06425 14.589 9.27919 14.6714 9.44171 14.8229L12.5508 17.9319L20.232 10.2507C20.3927 10.0902 20.6105 10 20.8378 10C21.0649 10 21.2829 10.0902 21.4436 10.2507Z" fill="white"/>
</svg>
