<?xml version="1.0" encoding="UTF-8"?>
<!-- Creator: CorelDRAW 2021 (64-Bit) -->
<svg xmlns="http://www.w3.org/2000/svg" xmlns:xlink="http://www.w3.org/1999/xlink" xmlns:xodm="http://www.corel.com/coreldraw/odm/2003" xml:space="preserve" width="429px" height="70px" version="1.1" shape-rendering="geometricPrecision" text-rendering="geometricPrecision" image-rendering="optimizeQuality" fill-rule="evenodd" clip-rule="evenodd" viewBox="0 0 1635.43 266.78">
 <defs>
   <radialGradient id="id0" gradientUnits="userSpaceOnUse" gradientTransform="matrix(0.808264 -0 -0 2.94067 5 -341)" cx="28.67" cy="175.65" r="2.4" fx="28.67" fy="175.65">
    <stop offset="0" stop-opacity="1" stop-color="#B7C5E6"></stop>
    <stop offset="1" stop-opacity="1" stop-color="#9BA8CB"></stop>
   </radialGradient>
 </defs>
 <g id="Слой_x0020_1">
  <metadata id="CorelCorpID_0Corel-Layer"></metadata>
  <polygon fill="#0DB25A" fill-rule="nonzero" points="202.45,97.11 202.45,164.23 174.02,176.04 174.02,97.11 "></polygon>
  <path fill="#0DB25A" fill-rule="nonzero" d="M133.31 0c-73.49,0 -133.31,59.82 -133.31,133.31 0,3.73 0.16,7.31 0.47,11.03 0.46,6.84 1.71,13.68 3.26,20.2 1.09,4.35 2.33,8.71 3.73,12.9l27.03 -8.86c0,0 -2.48,-7.3 -3.88,-14.14l0 0c-1.09,-4.81 -1.71,-9.78 -2.02,-14.91 -0.16,-2.02 -0.16,-4.04 -0.16,-6.22 0,-6.37 0.63,-12.58 1.71,-18.64 8.86,-48.94 51.75,-86.23 103.17,-86.23 57.96,0 105.04,47.08 105.04,104.87 0,19.27 -5.28,37.14 -14.3,52.68 -4.81,8.23 -10.72,15.84 -17.55,22.53 -6.84,6.68 -14.76,12.43 -23.16,17.09 -14.91,8.08 -31.85,12.74 -50.03,12.74 -29.21,0 -55.62,-12.12 -74.73,-31.54l-20.05 20.2c24.09,24.55 57.81,39.77 94.78,39.77 25.95,0 50.19,-7.46 70.7,-20.35 8.24,-5.13 15.69,-11.03 22.53,-17.87 6.84,-6.53 12.9,-13.99 18.18,-21.91 13.98,-21.13 22.06,-46.3 22.06,-73.34 0,-73.49 -59.82,-133.31 -133.47,-133.31l0 0z"></path>
  <path fill="url(#id0)" d="M34.49 168.58c0,0 -2.48,-7.3 -3.88,-14.14 0.93,4.82 3.88,14.14 3.88,14.14z"></path>
  <path fill="#088F47" fill-rule="nonzero" d="M7.46 177.44c-1.4,-4.2 -2.64,-8.55 -3.73,-12.9l18.49 -18.49 6.37 -6.52c0.31,5.13 0.93,10.1 2.02,14.91l0 0c1.4,6.84 3.88,14.14 3.88,14.14l0 0 -27.03 8.86z"></path>
  <polygon fill="#088F47" fill-rule="nonzero" points="174.02,176.04 174.02,119.02 202.45,147.45 202.45,164.23 "></polygon>
  <polygon fill="#0DB25A" fill-rule="nonzero" points="202.45,164.23 174.02,176.04 111.56,113.58 41.33,183.81 7.46,177.44 30.61,154.44 111.56,73.34 "></polygon>
  <polygon fill="#0DB25A" fill-rule="nonzero" points="97.11,204.47 125.7,204.47 125.7,176.04 97.11,176.04 "></polygon>
  <path fill="#FEFEFE" fill-rule="nonzero" d="M390.77 133.22c-9.32,0 -17.4,-2.02 -24.08,-6.06 -6.84,-4.04 -11.96,-9.79 -15.69,-17.09 -3.73,-7.31 -5.44,-15.85 -5.44,-25.49 0,-9.78 1.71,-18.17 5.44,-25.63 3.73,-7.31 8.85,-12.9 15.69,-16.94 6.68,-4.19 14.76,-6.21 24.08,-6.21 10.88,0 19.89,2.64 27.19,8.07 7.15,5.29 12.43,12.43 15.39,21.6l-17.87 4.98c-1.71,-5.75 -4.66,-10.1 -8.7,-13.21 -4.2,-3.26 -9.48,-4.82 -16.01,-4.82 -5.9,0 -10.87,1.4 -14.76,4.04 -4.04,2.64 -6.99,6.37 -9.01,11.19 -1.86,4.81 -2.95,10.41 -2.95,16.93 0,6.53 1.09,12.12 2.95,16.94 2.02,4.82 4.97,8.55 9.01,11.19 3.89,2.64 8.86,3.88 14.76,3.88 6.53,0 11.81,-1.55 16.01,-4.66 4.04,-3.26 6.99,-7.61 8.7,-13.21l17.87 4.98c-2.96,9.01 -8.24,16.31 -15.39,21.59 -7.3,5.29 -16.31,7.93 -27.19,7.93l0 0zm56.87 -1.87l0 -93.54 17.71 0 0 43.04 35.58 -43.04 21.6 0 -39.15 46.15 41.48 47.39 -22.22 0 -37.29 -42.57 0 42.57 -17.71 0 0 0zm149.94 1.87c-9.32,0 -17.4,-2.02 -24.24,-6.06 -6.68,-4.04 -11.96,-9.79 -15.69,-17.09 -3.58,-7.31 -5.44,-15.85 -5.44,-25.49 0,-9.78 1.86,-18.17 5.44,-25.63 3.73,-7.31 9.01,-12.9 15.69,-16.94 6.84,-4.19 14.92,-6.21 24.24,-6.21 10.72,0 19.73,2.64 27.03,8.07 7.31,5.29 12.43,12.43 15.39,21.6l-17.72 4.98c-1.71,-5.75 -4.66,-10.1 -8.85,-13.21 -4.04,-3.26 -9.32,-4.82 -15.85,-4.82 -5.9,0 -10.88,1.4 -14.92,4.04 -3.88,2.64 -6.83,6.37 -8.85,11.19 -2.02,4.81 -2.95,10.41 -2.95,16.93 0,6.53 0.93,12.12 2.95,16.94 2.02,4.82 4.97,8.55 8.85,11.19 4.04,2.64 9.02,3.88 14.92,3.88 6.53,0 11.81,-1.55 15.85,-4.66 4.19,-3.26 7.15,-7.61 8.85,-13.21l17.72 4.98c-2.95,9.01 -8.08,16.31 -15.39,21.59 -7.3,5.29 -16.31,7.93 -27.03,7.93l0 0zm78.46 -1.87l0 -77.07 -29.52 0 0 -16.47 76.76 0 0 16.47 -29.53 0 0 77.07 -17.71 0 0 0zm57.49 0l0 -93.54 39.62 0c0.94,0 2.18,0 3.58,0 1.55,0.16 2.95,0.32 4.19,0.47 5.59,0.93 10.1,2.8 13.67,5.59 3.58,2.8 6.22,6.38 7.93,10.57 1.71,4.35 2.48,9.01 2.48,14.3 0,5.28 -0.77,9.94 -2.48,14.13 -1.71,4.35 -4.35,7.93 -7.93,10.73 -3.57,2.79 -8.08,4.66 -13.67,5.43 -1.24,0.31 -2.64,0.31 -4.19,0.47 -1.56,0.16 -2.8,0.16 -3.58,0.16l-21.9 0 0 31.69 -17.72 0 0 0zm17.72 -48.17l21.13 0c0.93,0 1.86,-0.15 2.95,-0.15 1.09,-0.16 2.02,-0.31 2.95,-0.62 2.33,-0.62 4.19,-1.71 5.59,-3.26 1.25,-1.56 2.18,-3.27 2.64,-5.13 0.47,-1.87 0.78,-3.58 0.78,-5.28 0,-1.71 -0.31,-3.58 -0.78,-5.44 -0.46,-1.87 -1.39,-3.58 -2.64,-5.13 -1.4,-1.55 -3.26,-2.64 -5.59,-3.26 -0.93,-0.31 -1.86,-0.47 -2.95,-0.47 -1.09,-0.16 -2.02,-0.16 -2.95,-0.16l-21.13 0 0 28.9zm106.9 50.04c-9.33,0 -17.41,-2.02 -24.09,-6.06 -6.83,-4.04 -11.96,-9.79 -15.69,-17.09 -3.73,-7.31 -5.44,-15.85 -5.44,-25.49 0,-9.78 1.71,-18.17 5.44,-25.63 3.73,-7.31 8.85,-12.9 15.69,-16.94 6.68,-4.19 14.76,-6.21 24.09,-6.21 9.47,0 17.55,2.01 24.23,6.21 6.84,4.04 11.97,9.63 15.7,16.94 3.73,7.46 5.44,15.85 5.44,25.63 0,9.64 -1.71,18.18 -5.44,25.49 -3.73,7.3 -8.86,13.05 -15.7,17.09 -6.68,4.04 -14.76,6.06 -24.23,6.06zm0 -16.63c6.06,0.16 10.87,-1.09 14.91,-3.73 3.89,-2.64 6.84,-6.37 8.86,-11.34 1.86,-4.82 2.95,-10.41 2.95,-16.94 0,-6.52 -1.09,-12.12 -2.95,-16.93 -2.02,-4.82 -4.98,-8.39 -8.86,-11.04 -4.04,-2.64 -8.85,-4.04 -14.91,-4.19 -5.91,0 -10.88,1.24 -14.76,3.88 -3.89,2.65 -6.84,6.38 -8.86,11.19 -2.02,4.82 -2.95,10.57 -2.95,17.09 0,6.53 0.93,12.12 2.95,16.94 2.02,4.66 4.97,8.39 8.86,11.03 3.88,2.64 8.85,4.04 14.76,4.04zm58.42 14.76l0 -93.54 17.86 0 0 62.31 40.71 -62.31 17.87 0 0 93.54 -17.87 0 0 -62.46 -40.71 62.46 -17.86 0zm37.91 -101.3c-3.89,0 -7.3,-0.94 -10.41,-2.8 -3.11,-1.86 -5.6,-4.35 -7.46,-7.46 -1.86,-3.11 -2.8,-6.68 -2.8,-10.41l13.67 0c0,1.86 0.63,3.57 2.02,4.97 1.4,1.25 3.11,2.02 4.98,2.02 2.02,0 3.57,-0.77 4.97,-2.02 1.4,-1.4 2.02,-3.1 2.02,-4.97l13.67 0c0,3.73 -0.93,7.3 -2.8,10.41 -1.86,3.11 -4.35,5.59 -7.45,7.46 -3.11,1.86 -6.69,2.8 -10.41,2.8l0 0zm51.58 116.84l0 -32.01c2.8,0 5.29,-0.77 7.15,-2.17 2.02,-1.4 3.57,-3.42 4.82,-5.91 1.4,-2.64 2.33,-5.59 3.11,-9.16 0.62,-3.42 1.24,-7.15 1.55,-11.19 0.47,-5.28 0.78,-10.41 1.24,-15.38 0.31,-5.13 0.62,-10.41 0.93,-15.85 0.47,-5.28 0.78,-11.19 1.25,-17.56l62.15 0.16 0 77.06 7.15 0 0 32.01 -17.72 0 0 -15.54 -53.91 0 0 15.54 -17.72 0 0 0zm26.42 -32.01l38.07 0 0 -60.6 -28.28 -0.15c-0.31,4.35 -0.62,8.23 -0.78,11.81 -0.31,3.57 -0.47,7.3 -0.78,10.87 -0.15,3.73 -0.62,7.93 -0.93,12.43 -0.47,4.51 -0.93,8.24 -1.4,11.19 -0.31,2.95 -1.08,5.44 -1.86,7.62 -0.93,2.17 -2.33,4.5 -4.04,6.83l0 0zm117.31 18.34c-9.33,0 -17.4,-2.02 -24.24,-6.06 -6.68,-4.04 -11.97,-9.79 -15.54,-17.09 -3.73,-7.31 -5.59,-15.85 -5.59,-25.49 0,-9.78 1.86,-18.17 5.59,-25.63 3.57,-7.31 8.86,-12.9 15.54,-16.94 6.84,-4.19 14.91,-6.21 24.24,-6.21 9.32,0 17.4,2.01 24.24,6.21 6.68,4.04 11.96,9.63 15.69,16.94 3.57,7.46 5.44,15.85 5.44,25.63 0,9.64 -1.87,18.18 -5.44,25.49 -3.73,7.3 -9.01,13.05 -15.69,17.09 -6.84,4.04 -14.92,6.06 -24.24,6.06zm0 -16.63c5.9,0.16 10.87,-1.09 14.76,-3.73 4.04,-2.64 6.99,-6.37 8.85,-11.34 2.02,-4.82 2.95,-10.41 2.95,-16.94 0,-6.52 -0.93,-12.12 -2.95,-16.93 -1.86,-4.82 -4.81,-8.39 -8.85,-11.04 -3.89,-2.64 -8.86,-4.04 -14.76,-4.19 -5.91,0 -10.88,1.24 -14.76,3.88 -4.04,2.65 -6.99,6.38 -8.86,11.19 -2.02,4.82 -2.95,10.57 -2.95,17.09 0,6.53 0.93,12.12 2.95,16.94 1.87,4.66 4.82,8.39 8.86,11.03 3.88,2.64 8.85,4.04 14.76,4.04zm58.26 14.76l0 -93.54 16.01 0 30.92 62 30.92 -62 15.84 0 0 93.54 -16.62 0 0 -55.93 -27.04 55.93 -6.37 0 -27.03 -55.93 0 55.93 -16.63 0 0 0zm137.82 0l0 -93.54 15.85 0 30.92 62 30.92 -62 15.85 0 0 93.54 -16.47 0 0 -55.93 -27.19 55.93 -6.22 0 -27.19 -55.93 0 55.93 -16.47 0 0 0zm151.96 1.87c-9.48,0 -17.56,-2.02 -24.24,-6.06 -6.84,-4.04 -11.96,-9.79 -15.69,-17.09 -3.73,-7.31 -5.44,-15.85 -5.44,-25.49 0,-9.78 1.71,-18.17 5.44,-25.63 3.73,-7.31 8.85,-12.9 15.69,-16.94 6.68,-4.19 14.76,-6.21 24.24,-6.21 10.72,0 19.73,2.64 27.04,8.07 7.3,5.29 12.43,12.43 15.38,21.6l-17.87 4.98c-1.71,-5.75 -4.66,-10.1 -8.7,-13.21 -4.2,-3.26 -9.48,-4.82 -15.85,-4.82 -6.06,0 -11.03,1.4 -14.92,4.04 -3.88,2.64 -6.99,6.37 -9.01,11.19 -1.86,4.81 -2.95,10.41 -2.95,16.93 0,6.53 1.09,12.12 2.95,16.94 2.02,4.82 5.13,8.55 9.01,11.19 3.89,2.64 8.86,3.88 14.92,3.88 6.37,0 11.65,-1.55 15.85,-4.66 4.04,-3.26 6.99,-7.61 8.7,-13.21l17.87 4.98c-2.95,9.01 -8.08,16.31 -15.38,21.59 -7.31,5.29 -16.32,7.93 -27.04,7.93l0 0zm56.71 -1.87l0 -93.54 17.72 0 0 43.04 35.58 -43.04 21.6 0 -39.16 46.15 41.64 47.39 -22.37 0 -37.29 -42.57 0 42.57 -17.72 0 0 0z"></path>
  <path fill="#FEFEFE" fill-rule="nonzero" d="M364.9 230.77c-4.13,0 -7.63,-0.91 -10.51,-2.73 -2.87,-1.82 -5.06,-4.35 -6.57,-7.6 -1.5,-3.24 -2.26,-6.99 -2.26,-11.25 0,-4.26 0.76,-8.01 2.26,-11.25 1.51,-3.24 3.7,-5.77 6.57,-7.59 2.88,-1.83 6.38,-2.74 10.51,-2.74 4.79,0 8.74,1.22 11.84,3.66 3.09,2.43 5.23,5.71 6.4,9.84l-5.21 1.38c-0.84,-3.09 -2.35,-5.53 -4.52,-7.31 -2.16,-1.78 -5,-2.68 -8.51,-2.68 -3.09,0 -5.66,0.7 -7.71,2.1 -2.06,1.4 -3.6,3.36 -4.64,5.86 -1.03,2.5 -1.56,5.41 -1.58,8.73 -0.02,3.3 0.49,6.21 1.52,8.7 1.04,2.51 2.59,4.47 4.67,5.87 2.07,1.42 4.65,2.12 7.74,2.12 3.51,0 6.35,-0.9 8.51,-2.69 2.17,-1.79 3.68,-4.22 4.52,-7.29l5.21 1.38c-1.17,4.1 -3.31,7.37 -6.4,9.82 -3.1,2.45 -7.05,3.67 -11.84,3.67zm35.24 -0.86l0 -36.57 -14.12 0 0 -4.86 33.37 0 0 4.86 -14.12 0 0 36.57 -5.13 0zm23.86 0l0 -41.43 16.37 0c0.4,0 0.88,0.01 1.44,0.03 0.56,0.03 1.09,0.1 1.61,0.2 2.24,0.34 4.13,1.11 5.66,2.3 1.52,1.19 2.67,2.69 3.43,4.5 0.77,1.82 1.15,3.82 1.15,6.03 0,2.19 -0.39,4.18 -1.16,5.99 -0.78,1.82 -1.93,3.33 -3.45,4.52 -1.52,1.21 -3.4,1.98 -5.63,2.32 -0.52,0.08 -1.05,0.14 -1.61,0.17 -0.56,0.04 -1.04,0.06 -1.44,0.06l-11.25 0 0 15.31 -5.12 0zm5.12 -20.17l11.08 0c0.36,0 0.78,-0.02 1.25,-0.06 0.47,-0.04 0.92,-0.1 1.34,-0.2 1.32,-0.31 2.4,-0.87 3.24,-1.69 0.83,-0.81 1.44,-1.77 1.82,-2.87 0.39,-1.11 0.58,-2.23 0.58,-3.38 0,-1.15 -0.19,-2.27 -0.58,-3.39 -0.38,-1.09 -0.99,-2.06 -1.82,-2.88 -0.84,-0.83 -1.92,-1.38 -3.24,-1.67 -0.42,-0.12 -0.87,-0.19 -1.34,-0.22 -0.47,-0.02 -0.89,-0.04 -1.25,-0.04l-11.08 0 0 16.4zm47.33 21.03c-4.12,0 -7.62,-0.91 -10.5,-2.73 -2.88,-1.82 -5.06,-4.35 -6.57,-7.6 -1.5,-3.24 -2.26,-6.99 -2.26,-11.25 0,-4.26 0.76,-8.01 2.26,-11.25 1.51,-3.24 3.69,-5.77 6.57,-7.59 2.88,-1.83 6.38,-2.74 10.5,-2.74 4.15,0 7.66,0.91 10.53,2.74 2.88,1.82 5.07,4.35 6.57,7.59 1.49,3.24 2.24,6.99 2.24,11.25 0,4.26 -0.75,8.01 -2.24,11.25 -1.5,3.25 -3.69,5.78 -6.57,7.6 -2.87,1.82 -6.38,2.73 -10.53,2.73zm0 -4.89c3.09,0.02 5.67,-0.67 7.73,-2.09 2.06,-1.4 3.6,-3.37 4.64,-5.88 1.01,-2.51 1.53,-5.42 1.53,-8.72 0,-3.32 -0.52,-6.22 -1.53,-8.72 -1.04,-2.49 -2.58,-4.44 -4.64,-5.84 -2.06,-1.4 -4.64,-2.11 -7.73,-2.13 -3.09,-0.01 -5.66,0.68 -7.69,2.08 -2.04,1.4 -3.59,3.35 -4.62,5.87 -1.04,2.51 -1.57,5.42 -1.58,8.74 -0.02,3.3 0.48,6.2 1.52,8.69 1.04,2.5 2.59,4.45 4.65,5.85 2.05,1.42 4.63,2.13 7.72,2.15zm57.06 4.03l0 -41.43 -5.18 0 -21.61 32.37 0 -32.37 -5.18 0 0 41.43 5.18 0 21.61 -32.4 0 32.4 5.18 0zm18.73 0l0 -36.57 -14.12 0 0 -4.86 33.37 0 0 4.86 -14.13 0 0 36.57 -5.12 0zm23.86 0l0 -41.43 26.18 0 0 4.86 -21.06 0 0 12.98 17.61 0 0 4.86 -17.61 0 0 13.87 21.06 0 0 4.86 -26.18 0zm30.21 0l0 -4.46c1.02,0.1 1.86,0.05 2.53,-0.14 0.67,-0.2 1.22,-0.61 1.66,-1.24 0.43,-0.63 0.81,-1.56 1.13,-2.78 0.33,-1.22 0.65,-2.8 0.95,-4.76 0.4,-2.3 0.74,-4.62 1.01,-6.98 0.27,-2.35 0.5,-4.71 0.71,-7.08 0.19,-2.36 0.36,-4.72 0.5,-7.08 0.13,-2.34 0.25,-4.65 0.34,-6.91l26.68 0 0 41.43 -5.13 0 0 -36.57 -16.69 0c-0.11,1.74 -0.22,3.61 -0.35,5.59 -0.12,1.99 -0.29,4.06 -0.48,6.21 -0.19,2.14 -0.42,4.36 -0.69,6.64 -0.27,2.28 -0.6,4.61 -1.01,6.97 -0.32,1.89 -0.71,3.63 -1.16,5.2 -0.45,1.58 -1.07,2.89 -1.87,3.95 -0.8,1.05 -1.85,1.77 -3.13,2.15 -1.31,0.39 -2.97,0.34 -5,-0.14zm43.53 0l0 -41.43 5.12 0 0 15.3 11.26 0c0.4,0 0.88,0.01 1.43,0.04 0.56,0.03 1.1,0.1 1.62,0.19 2.22,0.35 4.1,1.12 5.63,2.31 1.51,1.19 2.66,2.68 3.45,4.49 0.77,1.83 1.16,3.83 1.16,6.04 0,2.18 -0.38,4.19 -1.15,5.99 -0.77,1.81 -1.92,3.33 -3.44,4.52 -1.52,1.2 -3.41,1.97 -5.65,2.32 -0.52,0.08 -1.06,0.13 -1.62,0.17 -0.55,0.04 -1.03,0.06 -1.43,0.06l-16.38 0zm5.12 -4.86l11.08 0c0.37,0 0.79,-0.02 1.26,-0.06 0.47,-0.04 0.91,-0.11 1.33,-0.2 1.33,-0.31 2.41,-0.88 3.24,-1.69 0.84,-0.81 1.44,-1.77 1.83,-2.88 0.38,-1.1 0.57,-2.22 0.57,-3.37 0,-1.15 -0.19,-2.28 -0.57,-3.39 -0.39,-1.09 -0.99,-2.06 -1.83,-2.89 -0.83,-0.82 -1.91,-1.38 -3.24,-1.66 -0.42,-0.12 -0.86,-0.2 -1.33,-0.23 -0.47,-0.02 -0.89,-0.03 -1.26,-0.03l-11.08 0 0 16.4zm47.91 5.72c-4.12,0 -7.62,-0.91 -10.5,-2.73 -2.88,-1.82 -5.06,-4.35 -6.57,-7.6 -1.51,-3.24 -2.26,-6.99 -2.26,-11.25 0,-4.26 0.75,-8.01 2.26,-11.25 1.51,-3.24 3.69,-5.77 6.57,-7.59 2.88,-1.83 6.38,-2.74 10.5,-2.74 4.8,0 8.75,1.22 11.85,3.66 3.09,2.43 5.22,5.71 6.4,9.84l-5.21 1.38c-0.85,-3.09 -2.35,-5.53 -4.52,-7.31 -2.17,-1.78 -5.01,-2.68 -8.52,-2.68 -3.09,0 -5.66,0.7 -7.71,2.1 -2.05,1.4 -3.6,3.36 -4.63,5.86 -1.04,2.5 -1.57,5.41 -1.58,8.73 -0.02,3.3 0.49,6.21 1.52,8.7 1.04,2.51 2.59,4.47 4.66,5.87 2.07,1.42 4.65,2.12 7.74,2.12 3.51,0 6.35,-0.9 8.52,-2.69 2.17,-1.79 3.67,-4.22 4.52,-7.29l5.21 1.38c-1.18,4.1 -3.31,7.37 -6.4,9.82 -3.1,2.45 -7.05,3.67 -11.85,3.67zm35.25 -0.86l0 -36.57 -14.13 0 0 -4.86 33.38 0 0 4.86 -14.13 0 0 36.57 -5.12 0zm23.86 0l0 -41.43 16.14 0c2.47,0 4.59,0.5 6.35,1.52 1.75,1.02 3.09,2.36 4.02,4.01 0.93,1.67 1.4,3.45 1.4,5.37 0,2.25 -0.58,4.21 -1.73,5.9 -1.15,1.69 -2.71,2.85 -4.66,3.48l-0.06 -1.41c2.67,0.71 4.74,2.01 6.22,3.91 1.47,1.9 2.21,4.17 2.21,6.8 0,2.41 -0.5,4.5 -1.48,6.27 -0.99,1.76 -2.41,3.13 -4.26,4.11 -1.85,0.98 -4.04,1.47 -6.57,1.47l-17.58 0zm5.17 -4.89l11.43 0c1.53,0 2.9,-0.29 4.11,-0.85 1.21,-0.57 2.17,-1.37 2.87,-2.4 0.7,-1.04 1.05,-2.29 1.05,-3.74 0,-1.4 -0.31,-2.66 -0.93,-3.77 -0.63,-1.12 -1.5,-2 -2.62,-2.67 -1.13,-0.65 -2.43,-0.99 -3.91,-0.99l-12 0 0 14.42zm0 -19.25l10.91 0c1.23,0 2.34,-0.27 3.33,-0.8 0.99,-0.52 1.77,-1.26 2.36,-2.22 0.58,-0.96 0.87,-2.08 0.87,-3.37 0,-1.78 -0.6,-3.24 -1.81,-4.37 -1.21,-1.13 -2.79,-1.7 -4.75,-1.7l-10.91 0 0 12.46zm47.48 25c-4.12,0 -7.62,-0.91 -10.5,-2.73 -2.88,-1.82 -5.07,-4.35 -6.57,-7.6 -1.51,-3.24 -2.26,-6.99 -2.26,-11.25 0,-4.26 0.75,-8.01 2.26,-11.25 1.5,-3.24 3.69,-5.77 6.57,-7.59 2.88,-1.83 6.38,-2.74 10.5,-2.74 4.15,0 7.66,0.91 10.53,2.74 2.88,1.82 5.07,4.35 6.56,7.59 1.5,3.24 2.25,6.99 2.25,11.25 0,4.26 -0.75,8.01 -2.25,11.25 -1.49,3.25 -3.68,5.78 -6.56,7.6 -2.87,1.82 -6.38,2.73 -10.53,2.73zm0 -4.89c3.09,0.02 5.67,-0.67 7.73,-2.09 2.05,-1.4 3.6,-3.37 4.63,-5.88 1.02,-2.51 1.54,-5.42 1.54,-8.72 0,-3.32 -0.52,-6.22 -1.54,-8.72 -1.03,-2.49 -2.58,-4.44 -4.63,-5.84 -2.06,-1.4 -4.64,-2.11 -7.73,-2.13 -3.09,-0.01 -5.66,0.68 -7.69,2.08 -2.04,1.4 -3.59,3.35 -4.62,5.87 -1.04,2.51 -1.57,5.42 -1.59,8.74 -0.02,3.3 0.49,6.2 1.53,8.69 1.03,2.5 2.59,4.45 4.65,5.85 2.05,1.42 4.63,2.13 7.72,2.15zm21.64 10.48l0.32 -2.39c0.8,0.05 1.41,-0.1 1.81,-0.46 0.4,-0.37 0.66,-0.87 0.78,-1.5 0.11,-0.63 0.13,-1.33 0.05,-2.1l-2.96 0 0 -6.5 5.64 0 0 7.36c0,2.02 -0.5,3.53 -1.48,4.55 -0.99,1.02 -2.38,1.36 -4.16,1.04zm28.08 -6.45l0 -41.43 16.37 0c0.41,0 0.89,0.01 1.44,0.03 0.56,0.03 1.1,0.1 1.61,0.2 2.25,0.34 4.14,1.11 5.66,2.3 1.52,1.19 2.67,2.69 3.44,4.5 0.76,1.82 1.15,3.82 1.15,6.03 0,2.19 -0.4,4.18 -1.16,5.99 -0.79,1.82 -1.94,3.33 -3.46,4.52 -1.52,1.21 -3.4,1.98 -5.63,2.32 -0.51,0.08 -1.05,0.14 -1.61,0.17 -0.55,0.04 -1.03,0.06 -1.44,0.06l-11.25 0 0 15.31 -5.12 0zm5.12 -20.17l11.08 0c0.37,0 0.79,-0.02 1.26,-0.06 0.47,-0.04 0.91,-0.1 1.33,-0.2 1.32,-0.31 2.41,-0.87 3.24,-1.69 0.84,-0.81 1.44,-1.77 1.82,-2.87 0.39,-1.11 0.58,-2.23 0.58,-3.38 0,-1.15 -0.19,-2.27 -0.58,-3.39 -0.38,-1.09 -0.98,-2.06 -1.82,-2.88 -0.83,-0.83 -1.92,-1.38 -3.24,-1.67 -0.42,-0.12 -0.86,-0.19 -1.33,-0.22 -0.47,-0.02 -0.89,-0.04 -1.26,-0.04l-11.08 0 0 16.4zm30.3 20.17l0 -41.43 26.19 0 0 4.86 -21.07 0 0 12.98 17.61 0 0 4.86 -17.61 0 0 13.87 21.07 0 0 4.86 -26.19 0zm33.09 0l0 -41.43 5.12 0 0 19.45 18.13 -19.45 6.45 0 -18.82 20.11 20.28 21.32 -6.61 0 -19.43 -20.26 0 20.26 -5.12 0zm50.21 0.86c-4.12,0 -7.62,-0.91 -10.5,-2.73 -2.88,-1.82 -5.06,-4.35 -6.57,-7.6 -1.5,-3.24 -2.26,-6.99 -2.26,-11.25 0,-4.26 0.76,-8.01 2.26,-11.25 1.51,-3.24 3.69,-5.77 6.57,-7.59 2.88,-1.83 6.38,-2.74 10.5,-2.74 4.15,0 7.66,0.91 10.53,2.74 2.88,1.82 5.07,4.35 6.57,7.59 1.49,3.24 2.24,6.99 2.24,11.25 0,4.26 -0.75,8.01 -2.24,11.25 -1.5,3.25 -3.69,5.78 -6.57,7.6 -2.87,1.82 -6.38,2.73 -10.53,2.73zm0 -4.89c3.09,0.02 5.67,-0.67 7.73,-2.09 2.06,-1.4 3.6,-3.37 4.64,-5.88 1.01,-2.51 1.53,-5.42 1.53,-8.72 0,-3.32 -0.52,-6.22 -1.53,-8.72 -1.04,-2.49 -2.58,-4.44 -4.64,-5.84 -2.06,-1.4 -4.64,-2.11 -7.73,-2.13 -3.09,-0.01 -5.66,0.68 -7.69,2.08 -2.04,1.4 -3.59,3.35 -4.62,5.87 -1.04,2.51 -1.57,5.42 -1.58,8.74 -0.02,3.3 0.48,6.2 1.52,8.69 1.04,2.5 2.59,4.45 4.65,5.85 2.05,1.42 4.63,2.13 7.72,2.15zm25.09 4.03l0 -41.43 5.12 0 0 18.27 21.82 0 0 -18.27 5.12 0 0 41.43 -5.12 0 0 -18.3 -21.82 0 0 18.3 -5.12 0zm57.15 0.86c-4.13,0 -7.63,-0.91 -10.5,-2.73 -2.88,-1.82 -5.07,-4.35 -6.57,-7.6 -1.51,-3.24 -2.27,-6.99 -2.27,-11.25 0,-4.26 0.76,-8.01 2.27,-11.25 1.5,-3.24 3.69,-5.77 6.57,-7.59 2.87,-1.83 6.37,-2.74 10.5,-2.74 4.79,0 8.75,1.22 11.84,3.66 3.09,2.43 5.23,5.71 6.4,9.84l-5.21 1.38c-0.84,-3.09 -2.35,-5.53 -4.51,-7.31 -2.17,-1.78 -5.01,-2.68 -8.52,-2.68 -3.09,0 -5.66,0.7 -7.71,2.1 -2.06,1.4 -3.6,3.36 -4.64,5.86 -1.03,2.5 -1.56,5.41 -1.58,8.73 -0.02,3.3 0.49,6.21 1.53,8.7 1.03,2.51 2.59,4.47 4.66,5.87 2.07,1.42 4.65,2.12 7.74,2.12 3.51,0 6.35,-0.9 8.52,-2.69 2.16,-1.79 3.67,-4.22 4.51,-7.29l5.21 1.38c-1.17,4.1 -3.31,7.37 -6.4,9.82 -3.09,2.45 -7.05,3.67 -11.84,3.67zm35.25 -0.86l0 -36.57 -14.13 0 0 -4.86 33.38 0 0 4.86 -14.13 0 0 36.57 -5.12 0zm23.85 0l0 -41.43 16.37 0c0.4,0 0.88,0.01 1.44,0.03 0.56,0.03 1.09,0.1 1.61,0.2 2.25,0.34 4.14,1.11 5.66,2.3 1.52,1.19 2.67,2.69 3.43,4.5 0.77,1.82 1.16,3.82 1.16,6.03 0,2.19 -0.4,4.18 -1.16,5.99 -0.79,1.82 -1.94,3.33 -3.46,4.52 -1.52,1.21 -3.4,1.98 -5.63,2.32 -0.52,0.08 -1.05,0.14 -1.61,0.17 -0.56,0.04 -1.04,0.06 -1.44,0.06l-11.25 0 0 15.31 -5.12 0zm5.12 -20.17l11.08 0c0.36,0 0.79,-0.02 1.26,-0.06 0.47,-0.04 0.91,-0.1 1.33,-0.2 1.32,-0.31 2.41,-0.87 3.24,-1.69 0.84,-0.81 1.44,-1.77 1.82,-2.87 0.39,-1.11 0.58,-2.23 0.58,-3.38 0,-1.15 -0.19,-2.27 -0.58,-3.39 -0.38,-1.09 -0.98,-2.06 -1.82,-2.88 -0.83,-0.83 -1.92,-1.38 -3.24,-1.67 -0.42,-0.12 -0.86,-0.19 -1.33,-0.22 -0.47,-0.02 -0.9,-0.04 -1.26,-0.04l-11.08 0 0 16.4zm36.77 20.17l4.95 -10.27 -14.58 -31.16 5.72 0 11.54 25.69 11.8 -25.69 5.46 0 -19.33 41.43 -5.56 0zm29.64 0l0 -41.43 5.12 0 0 19.45 18.13 -19.45 6.45 0 -18.82 20.11 20.28 21.32 -6.61 0 -19.43 -20.26 0 20.26 -5.12 0zm67.33 5.75l0 -5.75 -32.14 0 0 -41.43 5.12 0 0 36.77 22.56 0 0 -36.2 5.12 0 0 36.2 4.46 0 0 10.41 -5.12 0zm41.69 -5.75l0 -41.43 -5.17 0 -21.61 32.37 0 -32.37 -5.18 0 0 41.43 5.18 0 21.61 -32.4 0 32.4 5.17 0zm36.86 0l0 -41.43 -16.37 0c-0.4,0 -0.88,0.01 -1.44,0.03 -0.55,0.03 -1.09,0.1 -1.61,0.2 -2.24,0.34 -4.13,1.11 -5.65,2.3 -1.52,1.19 -2.67,2.69 -3.44,4.5 -0.77,1.82 -1.15,3.82 -1.15,6.03 0,3.2 0.83,5.97 2.5,8.32 1.67,2.36 4.12,3.83 7.34,4.43l1.95 0.31 12.75 0 0 15.31 5.12 0zm-24.66 0l8.18 -16.86 -5.07 -1.55 -8.98 18.41 5.87 0zm19.54 -20.17l-11.08 0c-0.36,0 -0.78,-0.02 -1.24,-0.06 -0.47,-0.04 -0.92,-0.1 -1.35,-0.2 -1.32,-0.31 -2.39,-0.87 -3.23,-1.69 -0.83,-0.81 -1.45,-1.77 -1.83,-2.87 -0.38,-1.11 -0.58,-2.23 -0.58,-3.38 0,-1.15 0.2,-2.27 0.58,-3.39 0.38,-1.09 1,-2.06 1.83,-2.88 0.84,-0.83 1.91,-1.38 3.23,-1.67 0.43,-0.12 0.88,-0.19 1.35,-0.22 0.46,-0.02 0.88,-0.04 1.24,-0.04l11.08 0 0 16.4zm12.61 26.62l0.31 -2.39c0.81,0.05 1.41,-0.1 1.81,-0.46 0.41,-0.37 0.67,-0.87 0.78,-1.5 0.12,-0.63 0.14,-1.33 0.06,-2.1l-2.96 0 0 -6.5 5.63 0 0 7.36c0,2.02 -0.49,3.53 -1.47,4.55 -0.99,1.02 -2.38,1.36 -4.16,1.04zm45.11 -5.59c-4.12,0 -7.62,-0.91 -10.5,-2.73 -2.88,-1.82 -5.07,-4.35 -6.57,-7.6 -1.51,-3.24 -2.26,-6.99 -2.26,-11.25 0,-4.26 0.75,-8.01 2.26,-11.25 1.5,-3.24 3.69,-5.77 6.57,-7.59 2.88,-1.83 6.38,-2.74 10.5,-2.74 4.15,0 7.66,0.91 10.53,2.74 2.88,1.82 5.07,4.35 6.56,7.59 1.5,3.24 2.25,6.99 2.25,11.25 0,4.26 -0.75,8.01 -2.25,11.25 -1.49,3.25 -3.68,5.78 -6.56,7.6 -2.87,1.82 -6.38,2.73 -10.53,2.73zm0 -4.89c3.09,0.02 5.67,-0.67 7.73,-2.09 2.05,-1.4 3.6,-3.37 4.63,-5.88 1.02,-2.51 1.54,-5.42 1.54,-8.72 0,-3.32 -0.52,-6.22 -1.54,-8.72 -1.03,-2.49 -2.58,-4.44 -4.63,-5.84 -2.06,-1.4 -4.64,-2.11 -7.73,-2.13 -3.09,-0.01 -5.66,0.68 -7.69,2.08 -2.04,1.4 -3.59,3.35 -4.62,5.87 -1.04,2.51 -1.57,5.42 -1.59,8.74 -0.01,3.3 0.49,6.2 1.53,8.69 1.04,2.5 2.59,4.45 4.65,5.85 2.05,1.42 4.63,2.13 7.72,2.15zm34.62 4.03l0 -36.57 -14.13 0 0 -4.86 33.38 0 0 4.86 -14.13 0 0 36.57 -5.12 0zm20.68 6.91l0 -11.77c1.52,0 2.75,-0.39 3.71,-1.15 0.95,-0.77 1.68,-1.82 2.22,-3.13 0.54,-1.31 0.94,-2.79 1.23,-4.44 0.27,-1.65 0.5,-3.36 0.67,-5.12 0.25,-2.5 0.46,-4.91 0.62,-7.25 0.17,-2.34 0.31,-4.77 0.45,-7.28 0.13,-2.52 0.28,-5.26 0.46,-8.23l26.04 0.03 0 36.57 3.02 0 0 11.77 -5.12 0 0 -6.91 -28.17 0 0 6.91 -5.13 0zm8.98 -11.77l21.3 0 0 -31.71 -16.18 -0.03c-0.11,2.23 -0.23,4.36 -0.32,6.4 -0.12,2.04 -0.24,4.1 -0.4,6.17 -0.15,2.08 -0.34,4.27 -0.57,6.59 -0.21,2.15 -0.44,4 -0.7,5.57 -0.26,1.56 -0.63,2.91 -1.11,4.02 -0.48,1.13 -1.15,2.12 -2.02,2.99zm35.77 4.86l0 -41.43 26.18 0 0 4.86 -21.06 0 0 12.98 17.61 0 0 4.86 -17.61 0 0 13.87 21.06 0 0 4.86 -26.18 0zm30.21 0l0 -4.46c1.02,0.1 1.86,0.05 2.53,-0.14 0.67,-0.2 1.22,-0.61 1.66,-1.24 0.43,-0.63 0.81,-1.56 1.13,-2.78 0.33,-1.22 0.65,-2.8 0.95,-4.76 0.41,-2.3 0.74,-4.62 1.01,-6.98 0.27,-2.35 0.5,-4.71 0.71,-7.08 0.19,-2.36 0.37,-4.72 0.5,-7.08 0.13,-2.34 0.25,-4.65 0.34,-6.91l26.68 0 0 41.43 -5.12 0 0 -36.57 -16.69 0c-0.12,1.74 -0.23,3.61 -0.36,5.59 -0.12,1.99 -0.29,4.06 -0.48,6.21 -0.19,2.14 -0.42,4.36 -0.69,6.64 -0.27,2.28 -0.6,4.61 -1,6.97 -0.33,1.89 -0.71,3.63 -1.16,5.2 -0.46,1.58 -1.08,2.89 -1.88,3.95 -0.8,1.05 -1.85,1.77 -3.13,2.15 -1.31,0.39 -2.96,0.34 -5,-0.14zm43.56 0l0 -41.43 5.13 0 0 19.45 18.12 -19.45 6.45 0 -18.82 20.11 20.29 21.32 -6.62 0 -19.42 -20.26 0 20.26 -5.13 0zm32.32 0l13.87 -41.43 7.13 0 13.87 41.43 -5.32 0 -12.98 -38.44 1.61 0 -12.86 38.44 -5.32 0zm6.67 -9.7l0 -4.8 21.52 0 0 4.8 -21.52 0z"></path>
 </g>
</svg>
