<svg xmlns="http://www.w3.org/2000/svg" height="204.005" width="177.921"><defs><clipPath id="a" clipPathUnits="userSpaceOnUse"><path d="M0 153.004h133.441V0H0z"/></clipPath></defs><g clip-path="url(#a)" transform="matrix(1.33333 0 0 -1.33333 0 204.005)"><path d="M120.561 99.715a4.802 4.802 0 01-5.081-8.148c5.239-3.262 8.364-8.895 8.364-15.067 0-6.168-3.125-11.8-8.363-15.066L36.75 12.344c-5.555-3.465-12.29-3.633-18.012-.461-5.721 3.18-9.14 8.98-9.14 15.528v98.183c0 6.547 3.419 12.348 9.14 15.524 5.723 3.175 12.457 3.007 18.012-.457l45.833-28.58a4.801 4.801 0 015.082 8.15l-45.837 28.574c-8.556 5.336-18.93 5.602-27.746.707C5.266 144.62 0 135.68 0 125.594V27.41C0 17.328 5.267 8.383 14.082 3.493 18.28 1.16 22.832 0 27.374 0c4.993 0 9.974 1.403 14.454 4.2l78.733 49.089c8.067 5.032 12.88 13.707 12.88 23.215 0 9.504-4.813 18.18-12.88 23.21" fill="#fff"/></g></svg>