<svg width="18" height="18" viewBox="0 0 18 18" fill="none" xmlns="http://www.w3.org/2000/svg">
<g clip-path="url(#clip0_314_5481)">
<path d="M7.04029 7.3201C7.04029 7.93865 6.53874 8.4402 5.92019 8.4402C5.30164 8.4402 4.80029 7.93865 4.80029 7.3201C4.80029 6.70155 5.30164 6.2002 5.92019 6.2002C6.53874 6.2002 7.04029 6.70155 7.04029 7.3201Z" fill="#74bb16"/>
<path d="M13.2 7.3201C13.2 7.93865 12.6986 8.4402 12.0801 8.4402C11.4615 8.4402 10.96 7.93865 10.96 7.3201C10.96 6.70155 11.4615 6.2002 12.0801 6.2002C12.6986 6.2002 13.2 6.70155 13.2 7.3201Z" fill="#74bb16"/>
<path d="M8.89106 12.9201H9.11235H9.11215C10.1173 12.9207 11.0557 12.4183 11.6126 11.5818C11.8348 11.2486 11.8622 10.8224 11.6848 10.4634C11.5073 10.1046 11.1518 9.86773 10.7524 9.84193C10.3528 9.81615 9.97002 10.0054 9.74792 10.3386C9.60593 10.5523 9.36608 10.6806 9.10942 10.6802H8.88813H8.88832C8.63149 10.6806 8.39184 10.5523 8.24982 10.3386C8.02775 10.0054 7.64472 9.81616 7.24532 9.84193C6.84571 9.86771 6.49022 10.1046 6.31292 10.4634C6.13538 10.8224 6.16292 11.2486 6.38499 11.5818C6.94299 12.4201 7.88399 12.9226 8.89104 12.9201H8.89106Z" fill="#74bb16"/>
<path d="M14.6225 3.15653C14.7182 3.20419 14.7959 3.28192 14.8435 3.37762L15.2775 4.24012C15.3603 4.40887 15.532 4.51571 15.7199 4.51571C15.908 4.51571 16.0795 4.40887 16.1623 4.24012L16.5963 3.37217H16.5965C16.6441 3.27627 16.7219 3.19873 16.8176 3.15088L17.6801 2.72256C17.8488 2.63975 17.9557 2.46807 17.9557 2.28018C17.9557 2.09209 17.8488 1.92061 17.6801 1.83779L16.8094 1.40381L16.8092 1.40361C16.7135 1.35596 16.6357 1.27822 16.5881 1.18252L16.1623 0.320019C16.0795 0.151269 15.908 0.0444336 15.7199 0.0444336C15.532 0.0444336 15.3604 0.151269 15.2775 0.320019L14.8436 1.19072V1.19091C14.7959 1.28662 14.7182 1.36435 14.6225 1.41201L13.76 1.83779C13.5912 1.9206 13.4844 2.09208 13.4844 2.28017C13.4844 2.46806 13.5912 2.63974 13.76 2.72256L14.6225 3.15653Z" fill="#74bb16"/>
<path d="M17.9096 7.52152C17.8897 7.23812 17.7631 6.97307 17.5551 6.77972C17.3471 6.58636 17.0737 6.47914 16.7897 6.47992C16.4779 6.47894 16.1801 6.60804 15.9676 6.83597C15.7549 7.0639 15.6471 7.37017 15.6696 7.68107C15.7032 8.1215 15.72 8.56117 15.72 8.99982C15.7237 10.1797 15.6299 11.3578 15.4401 12.5223C15.3219 13.2533 14.9764 13.9287 14.4528 14.4525C13.9289 14.9762 13.2536 15.3217 12.5225 15.4398C11.3581 15.6297 10.1799 15.7234 9.00008 15.7197C7.82018 15.7232 6.64208 15.6297 5.47763 15.4398C4.74658 15.3217 4.07118 14.9762 3.54738 14.4525C3.02373 13.9287 2.67823 13.2533 2.56008 12.5223C2.17141 10.19 2.17141 7.80957 2.56008 5.47727C2.67863 4.74642 3.02434 4.07123 3.54798 3.54757C4.07163 3.02393 4.74683 2.67822 5.47768 2.55967C6.64213 2.36983 7.82028 2.27628 9.00013 2.27979C9.4388 2.27979 9.87843 2.29385 10.3189 2.32178C10.7191 2.35069 11.1042 2.16397 11.3294 1.83194C11.5546 1.5001 11.5857 1.07314 11.4107 0.712037C11.2357 0.351097 10.8814 0.110687 10.4814 0.0817867C9.98665 0.0536617 9.49288 0.0397949 9.00013 0.0397949C7.69703 0.0401856 6.39623 0.147805 5.11088 0.36167C3.91828 0.55542 2.81693 1.11927 1.96263 1.97357C1.10833 2.82787 0.544476 3.92922 0.350926 5.12182C-0.0785639 7.69782 -0.0785639 10.3268 0.350926 12.9028C0.544481 14.0954 1.10833 15.1968 1.96263 16.0511C2.81693 16.9054 3.91828 17.4692 5.11088 17.663C6.39703 17.8684 7.69778 17.9677 9.00013 17.9597C10.3032 17.9593 11.604 17.8516 12.8894 17.6378C14.082 17.444 15.1833 16.8802 16.0376 16.0259C16.8919 15.1716 17.4558 14.0702 17.6493 12.8776C17.8589 11.5958 17.9628 10.2987 17.9601 8.99967C17.9601 8.5069 17.9433 8.01412 17.9097 7.52137L17.9096 7.52152Z" fill="#74bb16"/>
</g>
<defs>
<clipPath id="clip0_314_5481">
<rect width="18" height="18" fill="white"/>
</clipPath>
</defs>
</svg>
