<svg width="18" height="18" viewBox="0 0 18 18" fill="none" xmlns="http://www.w3.org/2000/svg">
<g clip-path="url(#clip0_314_5434)">
<path d="M15.4203 17.9885C11.335 17.9842 7.41829 16.3594 4.52912 13.4706C1.63994 10.5818 0.0154725 6.66498 0.0112305 2.57944C0.0112305 1.89825 0.281959 1.24509 0.76339 0.763389C1.24505 0.281952 1.89825 0.0112305 2.57944 0.0112305H5.14765C5.82884 0.0112305 6.482 0.281958 6.96347 0.763389C7.44513 1.24505 7.71586 1.89825 7.71586 2.57944V6.96456L4.8268 9.85362H4.82658C5.72429 11.1542 6.85267 12.2791 8.15566 13.1731L11.0447 10.284L15.4202 10.2838C16.1014 10.2838 16.7546 10.5545 17.2363 11.0362C17.7177 11.5176 17.9884 12.1708 17.9884 12.852V15.4202C17.9884 16.1014 17.7177 16.7546 17.2363 17.2363C16.7546 17.7177 16.1014 17.9884 15.4202 17.9884L15.4203 17.9885ZM10.5087 14.4571C12.0663 15.0991 13.7357 15.4263 15.4203 15.4203V12.8521H12.101L10.5087 14.4571ZM2.5795 2.57944C2.57345 4.26405 2.90061 5.9334 3.54261 7.49103L5.14771 5.88594V2.57944H2.5795Z" fill="#74bb16"/>
</g>
<defs>
<clipPath id="clip0_314_5434">
<rect width="18" height="18" fill="white"/>
</clipPath>
</defs>
</svg>
