<svg width="32" height="32" viewBox="0 0 32 32" fill="none" xmlns="http://www.w3.org/2000/svg">
<path d="M11.9818 31.8921C10.7703 32.296 10.1645 30.4787 11.376 30.0748C14.9098 28.9641 17.5347 27.6517 20.8668 30.0748C21.9775 30.7816 20.7657 32.3971 19.7561 31.5894C17.2319 29.772 14.6069 31.0844 11.9818 31.8924V31.8921ZM6.9335 9.57919C6.6305 10.8918 4.71235 10.488 5.01512 9.17534C7.74119 -3.84921 27.2272 -3.24343 26.4197 12.5072C26.3186 14.0217 26.2178 15.2332 27.0255 15.536C28.1362 16.0409 27.4293 17.8583 26.2178 17.3533C24.1986 16.4446 24.2994 14.7283 24.5013 12.4061C25.2082 -0.920996 9.15453 -1.12272 6.93374 9.57921L6.9335 9.57919ZM5.31813 13.9206C4.10658 13.9206 4.20744 11.9014 5.41921 12.0022C7.94337 12.1033 8.34724 10.8915 8.75106 9.37722C10.4675 4.3289 15.112 1.50209 19.8568 4.63191C22.7848 6.55029 23.4914 9.17531 23.1886 12.507C22.9867 14.8293 22.7848 17.4543 26.6214 18.6657C27.8329 19.0695 27.2271 20.8868 26.0156 20.483C20.6645 18.8677 20.9673 15.4347 21.2703 12.3053C21.4722 9.68029 21.1692 7.76191 18.8472 6.24752C15.2126 3.82447 11.8805 6.24752 10.6695 9.98324C9.86181 12.3055 9.25603 14.2236 5.31841 13.9209L5.31813 13.9206ZM5.31813 17.2525C4.00553 17.2525 4.10658 15.2332 5.41921 15.3341C7.94337 15.3341 11.0733 14.0215 11.5779 11.1946C11.9817 9.17531 12.5875 7.96382 13.4962 7.25693C15.5155 5.64156 18.9484 6.85308 19.8572 9.17531C20.3621 10.5888 20.2611 12.1033 19.9583 13.5167C18.2418 20.5844 12.7898 22.4017 6.42944 23.5124C5.11684 23.7143 4.81407 21.7959 6.02559 21.594C11.5786 20.5844 16.5256 19.2718 18.0403 13.1131C18.2422 12.1035 18.4442 10.892 18.0403 9.88237C17.6365 8.77168 15.7181 7.96399 14.7085 8.77168C14.2035 9.17553 13.7997 10.0843 13.4969 11.5986C12.7901 15.3343 8.8527 17.3535 5.31919 17.2527L5.31813 17.2525ZM5.82306 20.3824C4.51046 20.5843 4.20769 18.6659 5.52006 18.464C10.4673 17.6563 14.8085 16.4448 15.0108 10.5889C15.0108 9.2763 16.9292 9.37734 16.9292 10.69C16.6262 17.5559 11.78 19.4735 5.82343 20.3824L5.82306 20.3824ZM19.0493 19.3728C18.4436 18.2621 20.0589 17.3536 20.7658 18.464C21.7754 20.1805 23.8957 21.1901 25.8141 21.6948C27.0257 21.8967 26.6218 23.815 25.4103 23.5121C22.8861 23.0072 20.362 21.6948 19.0493 19.3726L19.0493 19.3728ZM7.53953 26.5413C6.32798 26.8443 5.92416 24.9259 7.13569 24.724C10.7703 23.9163 14.1024 23.4114 17.1313 20.8874C17.5352 20.5844 18.1409 20.6855 18.5448 21.0894C20.4632 23.4116 21.7755 24.0174 24.7035 24.724C25.915 25.027 25.5111 26.9451 24.1985 26.6424C21.8763 26.0366 19.1502 25.027 17.535 23.1086C14.405 25.3298 11.174 25.7336 7.53931 26.5413L7.53953 26.5413ZM9.25601 29.3682C8.04445 29.6712 7.53953 27.8537 8.75108 27.5509C11.6791 26.8441 13.3953 26.2383 14.6071 25.8344C17.5351 24.9256 17.737 25.1276 20.5639 26.4402C21.2708 26.7432 22.0785 27.046 23.189 27.5509C24.2997 28.0558 23.5928 29.772 22.3813 29.2674C21.2706 28.8635 20.4629 28.4597 19.7563 28.1567C17.434 27.1471 17.5351 26.9451 15.2129 27.7528C14.0013 28.1567 12.184 28.6616 9.256 29.3682L9.25601 29.3682Z" fill="#ffffff"/>
</svg>
